<?xml version="1.0" encoding="UTF-8"?>
<svg id="Layer_2" data-name="Layer 2" xmlns="http://www.w3.org/2000/svg" viewBox="0 0 962.52 153.38">
  <defs>
    <style>
      .cls-1 {
        fill: #f2f2f2;
      }

      .cls-2 {
        fill: #3dd8c9;
      }
    </style>
  </defs>
  <g id="Layer_1-2" data-name="Layer 1">
    <polygon class="cls-2" points="172.12 111.01 195.68 85.09 160.5 82.24 177.85 45.52 143.73 59.91 141.54 16.24 115.3 48.27 99.4 .05 99.4 0 99.38 .03 99.38 .05 83.48 48.27 57.24 16.24 55.02 59.91 20.92 45.52 32.98 82.24 3.07 85.09 21.37 111.01 0 137.31 75.23 137.31 46.37 108.47 71.44 83.37 84.59 96.49 96.73 96.49 102.02 96.49 114.17 96.49 127.31 83.37 152.38 108.47 123.55 137.31 198.75 137.31 172.12 111.01"/>
    <rect class="cls-2" x="69.07" y="103.44" width="11.01" height="17.07" transform="translate(-57.34 85.53) rotate(-45)"/>
    <rect class="cls-2" x="115.66" y="106.47" width="17.06" height="11.01" transform="translate(-42.8 120.61) rotate(-45)"/>
    <path class="cls-2" d="M99.38,132.57c-5.75,0-10.4,4.66-10.4,10.4s4.66,10.4,10.4,10.4,10.4-4.66,10.4-10.4-4.66-10.4-10.4-10.4Z"/>
    <path class="cls-1" d="M281.74,28.08h21.46v96.14h-21.46v-37.83h-38.24v37.83h-21.46V28.08h21.46v40.16h38.24V28.08Z"/>
    <path class="cls-1" d="M696.26,28.08h21.46v96.14h-21.46v-37.83h-38.24v37.83h-21.46V28.08h21.46v40.16h38.24V28.08Z"/>
    <path class="cls-1" d="M377.78,113.49c-8.35,7.89-18.13,11.83-29.37,11.83s-20.52-3.46-27.85-10.38c-7.34-6.92-11-16.21-11-27.85s3.73-20.91,11.21-27.78c7.47-6.88,16.3-10.32,26.48-10.32s18.82,3.07,25.93,9.22c7.1,6.14,10.66,14.58,10.66,25.31v11h-53.92c.64,4.04,2.75,7.34,6.33,9.9,3.58,2.57,7.61,3.85,12.11,3.85,7.24,0,13.2-2.43,17.88-7.29l11.55,12.52ZM357.97,69.61c-2.84-2.38-6.31-3.58-10.39-3.58s-7.82,1.24-11.21,3.71c-3.4,2.48-5.37,5.82-5.92,10.04h32.46c-.46-4.4-2.11-7.79-4.95-10.18Z"/>
    <path class="cls-1" d="M422.82,125.32c-8.76,0-16.58-3.71-23.45-11.14-6.88-7.43-10.32-16.64-10.32-27.65s3.35-20.01,10.04-27.03c6.69-7.01,14.53-10.52,23.52-10.52s16.32,3.16,22.01,9.49V22.16h20.63v102.06h-20.63v-9.77c-5.78,7.24-13.04,10.87-21.8,10.87ZM409.83,87.36c0,5.96,1.79,10.84,5.36,14.65,3.58,3.8,7.75,5.71,12.52,5.71s8.83-1.9,12.17-5.71c3.35-3.8,5.02-8.71,5.02-14.72s-1.67-11-5.02-14.99c-3.35-3.99-7.45-5.98-12.31-5.98s-9.03,2.02-12.52,6.05c-3.49,4.04-5.23,9.03-5.23,14.99Z"/>
    <path class="cls-1" d="M531.17,111.7c-6.51,7.24-14.6,10.87-24.28,10.87s-17.83-3.28-24.48-9.83c-6.65-6.56-9.97-15.31-9.97-26.27s3.42-19.94,10.25-26.96c6.83-7.01,14.65-10.52,23.45-10.52s16.09,3.62,21.87,10.87v-9.77h20.63v64.51c0,6.6-1.15,12.47-3.44,17.61-2.29,5.13-5.36,9.17-9.22,12.11-7.61,6.05-16.6,9.08-26.96,9.08-5.5,0-11.12-.89-16.85-2.68-5.73-1.79-10.75-4.33-15.06-7.63l7.98-15.54c6.79,5.13,13.96,7.7,21.53,7.7s13.55-1.88,17.95-5.64c4.4-3.76,6.6-9.72,6.6-17.88ZM528.28,85.64c0-5.92-1.65-10.57-4.95-13.96-3.3-3.39-7.38-5.09-12.24-5.09s-9.06,1.7-12.59,5.09c-3.53,3.39-5.29,8.02-5.29,13.89s1.72,10.61,5.16,14.24c3.44,3.62,7.63,5.43,12.59,5.43s9.08-1.79,12.38-5.36c3.3-3.58,4.95-8.32,4.95-14.24Z"/>
    <path class="cls-1" d="M623.91,113.49c-8.35,7.89-18.14,11.83-29.37,11.83s-20.52-3.46-27.85-10.38c-7.34-6.92-11-16.21-11-27.85s3.73-20.91,11.21-27.78c7.47-6.88,16.3-10.32,26.47-10.32s18.82,3.07,25.93,9.22c7.1,6.14,10.66,14.58,10.66,25.31v11h-53.92c.64,4.04,2.75,7.34,6.33,9.9,3.57,2.57,7.61,3.85,12.1,3.85,7.24,0,13.21-2.43,17.88-7.29l11.55,12.52ZM604.1,69.61c-2.84-2.38-6.3-3.58-10.38-3.58s-7.82,1.24-11.21,3.71c-3.39,2.48-5.36,5.82-5.91,10.04h32.46c-.45-4.4-2.11-7.79-4.95-10.18Z"/>
    <path class="cls-1" d="M803.15,87.22c0,10.73-3.71,19.76-11.14,27.1-7.43,7.34-16.76,11-27.99,11s-20.56-3.67-27.99-11c-7.43-7.33-11.14-16.37-11.14-27.1s3.71-19.78,11.14-27.17c7.43-7.38,16.76-11.07,27.99-11.07s20.56,3.69,27.99,11.07c7.43,7.38,11.14,16.44,11.14,27.17ZM745.66,87.22c0,6.05,1.72,10.98,5.16,14.79,3.44,3.8,7.84,5.71,13.21,5.71s9.77-1.9,13.21-5.71c3.44-3.8,5.16-8.74,5.16-14.79s-1.72-11-5.16-14.85c-3.44-3.85-7.84-5.78-13.21-5.78s-9.77,1.92-13.21,5.78c-3.44,3.85-5.16,8.8-5.16,14.85Z"/>
    <path class="cls-1" d="M867.55,111.7c-6.51,7.24-14.6,10.87-24.28,10.87s-17.83-3.28-24.48-9.83c-6.65-6.56-9.97-15.31-9.97-26.27s3.42-19.94,10.25-26.96c6.83-7.01,14.65-10.52,23.45-10.52s16.09,3.62,21.87,10.87v-9.77h20.63v64.51c0,6.6-1.15,12.47-3.44,17.61-2.29,5.13-5.37,9.17-9.22,12.11-7.61,6.05-16.6,9.08-26.96,9.08-5.5,0-11.12-.89-16.85-2.68-5.73-1.79-10.75-4.33-15.06-7.63l7.98-15.54c6.79,5.13,13.96,7.7,21.53,7.7s13.55-1.88,17.95-5.64c4.4-3.76,6.6-9.72,6.6-17.88ZM864.67,85.64c0-5.92-1.65-10.57-4.95-13.96-3.3-3.39-7.38-5.09-12.24-5.09s-9.05,1.7-12.58,5.09c-3.53,3.39-5.29,8.02-5.29,13.89s1.72,10.61,5.16,14.24c3.44,3.62,7.63,5.43,12.58,5.43s9.08-1.79,12.38-5.36c3.3-3.58,4.95-8.32,4.95-14.24Z"/>
    <path class="cls-1" d="M942.87,24.15v10.13h-2.8v-10.13h-3.56v-2.43h9.92v2.43h-3.56Z"/>
    <path class="cls-1" d="M959.72,26.38l-3.4,6.86h-1.67l-3.38-6.86v7.91h-2.8v-12.56h3.79l3.23,6.9,3.25-6.9h3.77v12.56h-2.8v-7.91Z"/>
    <path class="cls-1" d="M949.52,101.18c0,7.29-2.68,13.14-8.05,17.54-5.36,4.4-12.17,6.6-20.42,6.6-5.5,0-11.23-.99-17.19-2.96-5.96-1.97-11.33-4.88-16.09-8.73l9.08-12.93c7.7,5.96,15.91,8.94,24.62,8.94,2.66,0,4.77-.53,6.33-1.58,1.56-1.05,2.34-2.45,2.34-4.19s-1.08-3.35-3.23-4.82c-2.16-1.46-5.27-2.84-9.35-4.13-4.08-1.28-7.2-2.38-9.35-3.3-2.15-.92-4.61-2.25-7.36-3.99-5.6-3.48-8.39-8.64-8.39-15.48s2.75-12.4,8.25-16.71c5.5-4.31,12.61-6.46,21.32-6.46s17.42,2.94,26.13,8.8l-7.7,13.75c-6.42-4.4-12.82-6.6-19.19-6.6s-9.56,1.74-9.56,5.23c0,1.93,1.01,3.44,3.03,4.54,2.02,1.1,5.36,2.39,10.04,3.85,4.68,1.47,8,2.59,9.97,3.37,1.97.78,4.33,2,7.08,3.65,5.13,3.12,7.7,8.32,7.7,15.61Z"/>
  </g>
</svg>